<svg width="178" height="62" fill="none" xmlns="http://www.w3.org/2000/svg"><g clip-path="url(#clip0_717_1761)"><path d="M176.66 12.172h-4.486c-.742 0-1.34-.598-1.34-1.34V6.34c0-.742-.604-1.34-1.346-1.34h-3.457c-.742 0-1.34.598-1.34 1.34v4.486c0 .742-.604 1.34-1.34 1.34h-4.486c-.742 0-1.346.604-1.346 1.346v3.457c0 .742-.598 1.34-1.34 1.34h-46.598c-.742 0-1.34.604-1.34 1.346v22.89c0 .742.598 1.34 1.34 1.34h53.77c.742 0 1.34-.604 1.34-1.34V26.827c0-.742.598-1.34 1.34-1.34h3.457c.742 0 1.346-.604 1.346-1.34V19.66c0-.742.598-1.346 1.34-1.346h4.486c.742 0 1.34-.598 1.34-1.34v-3.456c0-.742-.598-1.346-1.34-1.346zm-12.693 11.526c0 .592-.483 1.075-1.076 1.075h-3.589a1.077 1.077 0 01-1.075-1.075v-3.59c0-.591.483-1.075 1.075-1.075h3.589c.593 0 1.076.483 1.076 1.076v3.589zm6.7-6.614c0 .592-.483 1.075-1.076 1.075h-3.588a1.078 1.078 0 01-1.076-1.075v-3.59c0-.592.483-1.075 1.076-1.075h3.588c.593 0 1.076.483 1.076 1.076v3.589z" fill="#E60012"/><path d="M119.715 22.25c-.707-.035-1.512-.035-1.512-.035h-4.78v17.708h3.135v-6.079h1.691s.632 0 1.219-.029c3.29-.15 6.01-1.863 6.01-5.785 0-3.923-2.461-5.608-5.763-5.78zm-1.087 8.902h-2.076v-6.268h2.151c.224 0 .604.005.817.023 1.685.126 2.904 1.08 2.904 3.122s-1.127 2.974-2.927 3.1c-.224.018-.621.023-.863.023m13.067-8.943h-3.134v17.708h3.134V22.21zm9.841 18.082c4.262 0 5.642-2.674 5.843-5.24.023-.275.029-.799.029-1.08v-7.184h-3.134v7.224c0 .213-.012.655-.029.845-.156 1.496-.943 2.53-2.709 2.53s-2.554-1.034-2.709-2.53c-.023-.19-.029-.638-.029-.845v-7.224h-3.134v7.184c0 .281.011.805.028 1.08.202 2.572 1.582 5.24 5.844 5.24zm18.692-9.967c0-2.57-2.37-3.951-4.762-3.951-2.393 0-4.613 1.616-4.613 3.951s1.599 3.284 4.124 3.992c2.099.586 2.45 1.196 2.45 1.944 0 .747-.587 1.53-1.737 1.53-1.15 0-1.898-.581-1.898-1.697h-3.134c0 2.237 1.921 4.239 5.095 4.239 3.175 0 4.814-2.25 4.814-4.09 0-1.84-.575-3.381-3.911-4.25-2.087-.546-2.691-.903-2.691-1.863s.949-1.243 1.558-1.243c.575 0 1.622.236 1.622 1.438h3.089-.006z" fill="#fff"/><path d="M16.035 30.852c.299-1.887.506-3.509.633-4.952l.017-.167-1.64-.104-.01.202a46.02 46.02 0 01-.455 4.474c-2.048-.707-3.882-1.115-5.602-1.26.362-1.938.742-4.083 1.07-6.636l.023-.184H1.409v1.512l6.913-.063c-.12 1.518-.42 3.549-.776 5.28H7.54c-.886.04-2.37.109-3.986.719C1.84 30.34 0 32.243 0 34.849c0 2.163 1.398 3.618 3.474 3.618 3.255 0 3.98-2.876 5.25-8.098.91.08 2.721.264 5.597 1.38-1.07 5.55-4.377 6.459-5.803 6.85l-.224.063.92 1.283.109-.03c4.52-1.276 5.97-5.216 6.436-7.59 1.167.488 1.708.804 2.283 1.155l.173.104.546-1.507-.127-.063a23.906 23.906 0 00-2.588-1.162m-8.759-.547c-1.415 6.822-2.76 6.822-3.945 6.822-1.83 0-1.921-1.927-1.921-2.313 0-1.627 1.012-3.174 2.519-3.853 1.323-.598 2.438-.638 3.347-.656zm25.163-1.863c-1.473 0-3.06.287-4.59.828-1.904.673-2.841 1.375-3.503 1.927.012-4.176.265-4.935.673-6.16l.063-.196-1.53-.437-.097.363c-.173.62-.345 1.26-.437 2.197-.064.558-.093 2.3-.121 3.836-.023 1.075-.04 2.093-.064 2.525l-.011.166 1.495.052.046-.092c1.231-2.421 5.459-3.548 7.926-3.548 3.813 0 3.922 3.134 3.922 3.497 0 4.112-4.302 4.681-8.949 4.681-1.927 0-2.887-.11-3.905-.224l-.196-.023.133 1.512.132.018c.903.109 2.024.224 4.003.224 1.547 0 4.135 0 6.338-.77 2.709-.944 4.083-2.79 4.083-5.482 0-3.37-2.72-4.883-5.412-4.883m1.801-3.766l.166.069.484-1.605-.144-.052c-3.054-1.087-7.155-1.31-8.346-1.357h-.138l-.31 1.542h.19c2.651.103 5.47.339 8.098 1.403zm15.626 7.845c-.431 1.173-1.984 5.004-3.917 5.004-2.605 0-2.944-4.74-2.944-8.869 0-3.071.264-5.027.368-5.763l.023-.167-1.662-.155-.03.385c-.108 1.34-.27 3.37-.27 5.597 0 4.578.455 10.663 4.395 10.663 2.835 0 4.693-4.216 5.366-6.034l.046-.132-1.312-.707-.063.178zm4.785-9.186l-.109-.086-1.116 1.04.15.116c.58.466 1.558 1.248 2.433 2.87 1.006 1.852 1.512 4.33 1.512 7.361 0 .898-.046 1.565-.086 2.1l-.029.42 1.72-.052.011-.397c.018-.535.035-.995.035-1.616 0-7.339-2.416-10.14-4.515-11.756m15.736 7.916l-.144-.11c-1.478-1.098-2.209-1.742-3.336-3.14h3.117V26.81h-1.725c.506-.915.76-1.507.932-1.904.04-.086.069-.166.103-.236l.07-.15-1.295-.54-.057.161c-.53 1.473-.966 2.238-1.225 2.669h-.5v-3.117c2.173-.414 2.835-.771 3.324-1.036l.126-.069-.46-1.219-.161.08c-2.617 1.283-5.792 1.433-7.96 1.433h-.224l.408 1.288h.12c.731 0 1.715-.034 3.498-.282v2.922h-.69c-.49-1.19-.72-1.697-1.197-2.439l-.063-.097-1.306.356.115.184c.484.77.765 1.3 1.041 1.996h-2.007v1.202h3.595c-.546.713-2.07 2.588-3.727 3.646l-.132.087.747 1.253.144-.115c.161-.126.316-.258.472-.39v7.821h1.328v-.8h6.068v-7.24l.035.029.966-1.047v.006zm-2.324 3.928h-1.737v-1.944h1.737v1.944zm0 3.129h-1.737v-1.985h1.737v1.984zm-3.065 0h-1.68v-1.985h1.68v1.984zm0-3.13h-1.68v-1.943h1.68v1.944zm0-5.963v2.818h-2.496a19.167 19.167 0 002.496-2.818zm1.328 2.818v-3.02c.863 1.254 1.668 2.025 2.796 3.02h-2.796z" fill="#231815"/><path d="M71.455 29.605l1.37-.552-.035-.138c-.225-.863-1.145-3.255-1.484-3.876l-.07-.127-1.293.53.075.154c.356.737 1.144 2.79 1.397 3.831l.046.184-.006-.006zm4.941-.104l1.34-.563-.046-.144c-.477-1.49-.598-1.777-1.288-3.365l-.23-.534-1.295.511.075.156c.702 1.426 1.133 2.582 1.398 3.744l.04.19.006.005z" fill="#231815"/><path d="M74.94 23.56h3.227v7.345c-1.127 1.524-1.927 2.468-3.387 3.986l-.087.092V22.215h-4.698v1.346h3.352v7.528c-1.075 1.398-3.278 3.457-3.818 3.894l-.11.086.696 1.208.15-.12c.707-.593 2.231-2.1 3.082-3.141v5.487c0 .15-.04.264-.114.333-.098.092-.242.104-.357.098l-2.013-.046.213 1.432h1.938c1.19 0 1.674-.42 1.674-1.45v-3.852l.85 1.035.127-.133c.944-.96 1.99-2.277 2.502-2.973v5.556c0 .103-.023.247-.115.333-.075.07-.184.098-.333.092l-1.996-.046.264 1.433H78c1.513 0 1.513-.932 1.513-1.427V22.215h-4.578v1.346h.006zm26.664 15.597c-2.467-1.84-4.1-3.945-4.595-8.696h3.52v-8.414h-9.335v7.948c0 4.124-.489 6.356-2.024 8.783v-5.573h-6.54v7.212h1.41v-.96h4.675a1.459 1.459 0 01-.109.149l-.103.144 1.391.8.087-.127c1.622-2.393 2.64-4.906 2.68-9.962h2.916c.31 4.285 1.777 7.184 5.032 9.99l.133.115 1-1.31-.132-.099h-.006zm-13.866-1.035H84.04v-3.64h3.698v3.64zm11.341-9.03h-6.418v-5.705h6.418v5.705zm-9.909-7.045h-6.54v1.305h6.54v-1.305z" fill="#231815"/><path d="M89.17 30.422h-6.54v1.346h6.54v-1.346zm0-2.836h-6.54v1.329h6.54v-1.33zm.707-2.738h-7.885v1.346h7.885v-1.346z" fill="#231815"/></g><defs><clipPath id="clip0_717_1761"><path fill="#fff" transform="translate(0 5)" d="M0 0h178v38.897H0z"/></clipPath></defs></svg>