<?xml version="1.0" encoding="utf-8"?>
<!-- Generator: Adobe Illustrator 18.1.1, SVG Export Plug-In . SVG Version: 6.00 Build 0)  -->
<svg version="1.1" id="レイヤー_1" xmlns="http://www.w3.org/2000/svg" xmlns:xlink="http://www.w3.org/1999/xlink" x="0px"
	 y="0px" viewBox="0 0 311.7 66.4" enable-background="new 0 0 311.7 66.4" xml:space="preserve">
<g>
	<g>
		<g>
			<polygon fill="#192728" points="117.8,50.7 117.8,20.3 104.6,43.1 91.4,20.3 91.4,50.7 84.9,50.7 84.9,6.1 90.7,6.1 104.6,30.2 
				118.5,6.1 124.3,6.1 124.3,50.7 			"/>
		</g>
		<g>
			<path fill="#192728" d="M128.2,50.7v-29h6.5v3c2-2.3,4.5-3.6,7.3-3.7l0.5,0v6.8l-0.4,0c-1.9,0.1-3.5,0.7-4.6,1.9
				c-1.7,1.7-2.7,3.8-2.7,6.2v14.9H128.2z"/>
		</g>
		<g>
			<path fill="#192728" d="M150.7,51c-1.2,0-2.2-0.4-3.1-1.3c-0.9-0.8-1.3-1.9-1.3-3.2c0-1.2,0.4-2.3,1.3-3.1
				c0.9-0.8,1.9-1.3,3.1-1.3c1.2,0,2.3,0.4,3.1,1.3c0.9,0.8,1.3,1.9,1.3,3.1c0,1.2-0.4,2.3-1.3,3.2C152.9,50.6,151.9,51,150.7,51z"
				/>
		</g>
		<g>
			<polygon fill="#192728" points="166,50.7 149.8,6.1 156.8,6.1 167.8,36.6 178.9,6.1 185.9,6.1 169.7,50.7 			"/>
		</g>
		<g>
			<path fill="#192728" d="M230.5,50.7V32.2c0-1.5-0.5-2.8-1.6-3.8c-1.1-1.1-2.4-1.6-3.9-1.6c-1.5,0-2.8,0.5-3.9,1.6
				c-0.6,0.6-1,1.1-1.1,1.5v20.9h-6.6v-29h6.6v1.8c1.4-2.2,3.6-3.3,6.7-3.3c3.2,0,5.7,1.1,7.6,3.4c1.8,2.2,2.8,5,2.9,8.4v18.7H230.5
				z"/>
		</g>
		<g>
			<path fill="#192728" d="M241,50.7v-29h6.5v3c2-2.3,4.5-3.6,7.3-3.7l0.5,0v6.8l-0.4,0c-1.9,0.1-3.5,0.7-4.6,1.9
				c-1.7,1.7-2.7,3.8-2.7,6.2v14.9H241z"/>
		</g>
		<g>
			<polygon fill="#192728" points="286.3,60.1 294,44 283.3,21.7 290.7,21.7 297.5,36.5 304.3,21.7 311.7,21.7 293.3,60.1 			"/>
		</g>
		<g>
			<path fill="#192728" d="M196.2,50.8c-2.1,0-4.1-0.3-5.9-1c-1.8-0.7-3.3-1.7-4.6-3c-1.3-1.3-2.3-2.9-2.9-4.8c-0.7-1.9-1-4.1-1-6.5
				c0-2.4,0.3-4.5,1-6.4c0.7-1.9,1.6-3.5,2.8-4.8c1.2-1.3,2.7-2.3,4.4-3c1.7-0.7,3.6-1.1,5.6-1.1c2.1,0,4.1,0.4,5.8,1
				c1.7,0.7,3.2,1.7,4.4,3c1.2,1.3,2.1,2.9,2.8,4.8c0.7,1.9,1,4.1,1,6.5v2.1H189l0,0.3c0.2,1.2,0.5,2.3,0.9,3.1
				c0.4,0.9,1,1.7,1.6,2.3c0.6,0.6,1.3,1.1,2.1,1.4c0.8,0.3,1.7,0.5,2.6,0.5c0.7,0,1.4-0.1,2-0.3c0.7-0.2,1.3-0.6,1.9-1
				c0.5-0.4,1-1,1.4-1.6c0.3-0.5,0.4-1,0.5-1.6l0.1-0.4h7.2l-0.1,0.5c-0.3,1.4-0.8,2.7-1.4,3.9c-0.8,1.4-1.7,2.5-2.9,3.4
				c-1.1,0.9-2.5,1.6-3.9,2.1C199.5,50.6,197.9,50.8,196.2,50.8z M202.3,31.9l-0.1-0.3c-0.5-1.9-1.3-3.3-2.4-4.3
				c-1.1-0.9-2.5-1.4-4.1-1.4c-1.5,0-2.9,0.5-4,1.4c-1.1,0.9-2,2.4-2.5,4.3l-0.1,0.3H202.3z"/>
		</g>
		<g>
			<path fill="#192728" d="M271.1,50.8c-2.1,0-4.1-0.3-5.9-1c-1.8-0.7-3.3-1.7-4.6-3c-1.3-1.3-2.3-2.9-2.9-4.8c-0.7-1.9-1-4.1-1-6.5
				c0-2.4,0.3-4.5,1-6.4c0.7-1.9,1.6-3.5,2.8-4.8c1.2-1.3,2.7-2.3,4.4-3c1.7-0.7,3.6-1.1,5.6-1.1c2.1,0,4.1,0.4,5.8,1
				c1.7,0.7,3.2,1.7,4.4,3c1.2,1.3,2.1,2.9,2.8,4.8c0.6,1.9,1,4.1,1,6.5v2.1h-20.6l0,0.3c0.2,1.2,0.5,2.3,0.9,3.1
				c0.4,0.9,1,1.7,1.6,2.3c0.6,0.6,1.3,1.1,2.1,1.4c0.8,0.3,1.7,0.5,2.6,0.5c0.7,0,1.4-0.1,2-0.3c0.7-0.2,1.3-0.6,1.9-1
				c0.5-0.4,1-1,1.4-1.6c0.3-0.5,0.4-1,0.5-1.6l0.1-0.4h7.2l-0.1,0.5c-0.3,1.4-0.8,2.7-1.4,3.9c-0.8,1.4-1.7,2.5-2.9,3.4
				c-1.1,0.9-2.5,1.6-3.9,2.1C274.4,50.6,272.8,50.8,271.1,50.8z M277.1,31.9l-0.1-0.3c-0.5-1.9-1.3-3.3-2.4-4.3
				c-1.1-0.9-2.5-1.4-4.1-1.4c-1.5,0-2.9,0.5-4,1.4c-1.1,0.9-2,2.4-2.5,4.3l-0.1,0.3H277.1z"/>
		</g>
	</g>
	<g>
		<polygon fill="#1483A5" points="56.6,23.4 33.2,46.8 9.8,23.4 0,33.2 33.2,66.4 66.4,33.2 		"/>
		
			<rect x="21.3" y="4.9" transform="matrix(0.7071 0.7071 -0.7071 0.7071 21.5819 -18.545)" fill="#1483A5" width="23.7" height="23.7"/>
	</g>
</g>
</svg>
